# AST/ASF file generated using VICON BodyLanguage
# -----------------------------------------------
:version 1.10
:name VICON
:units
  mass 1.0
  length 0.45
  angle deg
:documentation
   .ast/.asf automatically generated from VICON data using
   VICON BodyBuilder and BodyLanguage model FoxedUp or BRILLIANT.MOD
:root
   order TX TY TZ RX RY RZ
   axis XYZ
   position 0 0 0  
   orientation 0 0 0 
:bonedata
  begin
     id 1 
     name lhipjoint
     direction 0.653368 -0.678499 0.335782 
     length 2.51848 
     axis 0 0 0  XYZ
  end
  begin
     id 2 
     name lfemur
     direction 0.34202 -0.939693 0  
     length 6.57749  
     axis 0 0 20  XYZ
    dof rx ry rz
    limits (-160.0 20.0)
           (-70.0 70.0)
           (-60.0 70.0)
  end
  begin
     id 3 
     name ltibia
     direction 0.34202 -0.939693 0   
     length 7.94618   
     axis 0 0 20   XYZ
    dof rx
    limits (-10.0 170.0)
  end
  begin
     id 4 
     name lfoot
     direction 0.0811271 -0.222895 0.971461   
     length 2.31339   
     axis -90 7.62852e-016 20   XYZ
    dof rx rz
    limits (-45.0 90.0)
           (-70.0 20.0)
  end
  begin
     id 5 
     name ltoes
     direction 1.53568e-011 -4.21885e-011 1   
     length 1.15935   
     axis -90 7.62852e-016 20   XYZ
    dof rx
    limits (-90.0 20.0)
  end
  begin
     id 6 
     name rhipjoint
     direction -0.640058 -0.688614 0.340788   
     length 2.48149  
     axis 0 0 0  XYZ 
  end
  begin
     id 7 
     name rfemur
     direction -0.34202 -0.939693 0   
     length 6.57875   
     axis 0 0 -20   XYZ
    dof rx ry rz
    limits (-160.0 20.0)
           (-70.0 70.0)
           (-70.0 60.0)
  end
  begin
     id 8 
     name rtibia
     direction -0.34202 -0.939693 0   
     length 7.977   
     axis 0 0 -20   XYZ
    dof rx
    limits (-10.0 170.0)
 end
 begin
     id 9 
     name rfoot
     direction -0.0979793 -0.269196 0.958089   
     length 2.19857  
     axis -90 -7.62852e-016 -20   XYZ
    dof rx rz
    limits (-45.0 90.0)
           (-20.0 70.0)
  end
  begin
     id 10 
     name rtoes
     direction -1.53556e-011 -4.21868e-011 1   
     length 1.09838   
     axis -90 -7.62852e-016 -20   XYZ
    dof rx
    limits (-90.0 20.0)
  end
  begin
     id 11 
     name lowerback
     direction 0.0149039 0.998517 -0.0523597   
     length 2.10809   
     axis 0 0 0   XYZ
    dof rx ry rz
    limits (-20.0 45.0)
           (-30.0 30.0)
           (-30.0 30.0)
  end
  begin
     id 12 
     name upperback
     direction -0.00882659 0.999418 -0.0329624   
     length 2.1102   
     axis 0 0 0   XYZ
    dof rx ry rz
    limits (-20.0 45.0)
           (-30.0 30.0)
           (-30.0 30.0)
  end
  begin
     id 13 
     name thorax
     direction -0.0165585 0.999826 -0.0085833   
     length 2.11039   
     axis 0 0 0   XYZ
    dof rx ry rz
    limits (-20.0 45.0)
           (-30.0 30.0)
           (-30.0 30.0)
  end
  begin
     id 14 
     name lowerneck
     direction -0.0130877 0.999911 0.00260353   
     length 1.73253   
     axis 0 0 0   XYZ
    dof rx ry rz
    limits (-20.0 45.0)
           (-30.0 30.0)
           (-30.0 30.0)
  end
  begin
     id 15 
     name upperneck
     direction -0.0348454 0.928205 -0.370435   
     length 1.66692   
     axis 0 0 0   XYZ
    dof rx ry rz
    limits (-20.0 45.0)
           (-30.0 30.0)
           (-30.0 30.0)
  end
  begin
     id 16
     name head
     direction -0.00807754 0.992494 -0.122026  
     length 1.72765  
     axis 0 0 0   XYZ
    dof rx ry rz
    limits (-20.0 45.0)
           (-30.0 30.0)
           (-30.0 30.0)
  end
  begin
     id 17 
     name lclavicle
     direction 0.987582 0.144023 0.0627671  
     length 3.49235  
     axis 0 0 0   XYZ
    dof ry rz
    limits (-20.0 10.0)
           (0.0 20.0)
  end
  begin
     id 18 
     name lhumerus
     direction 1 -4.48958e-011 -1.45183e-018   
     length 5.41917   
     axis 180 -30 -90   XYZ
    dof rx ry rz
    limits (-60.0 90.0)
           (-90.0 90.0)
           (-90.0 90.0)
  end
  begin
     id 19
     name lradius
     direction 1 -4.48999e-011 5.75106e-027   
     length 2.44373   
     axis 180 -30 -90   XYZ
    dof rx
    limits (-10.0 170.0)
  end
  begin
     id 20
     name lwrist
     direction 1 -4.48987e-011 1.53461e-026   
     length 1.22186   
     axis -1.09697e-014 90 90   XYZ
    dof ry
    limits (-180.0 0.0)
 end
  begin
     id 21 
     name lhand
     direction 1 -4.48881e-011 3.06923e-026   
     length 0.727502   
     axis -1.95843e-014 90 90   XYZ
    dof rx rz
    limits (-90.0 90.0)
           (-45.0 45.0)
  end
  begin
     id 22 
     name lfingers
     direction 1 -4.48907e-011 6.13845e-026   
     length 0.586531   
     axis -3.91686e-014 90 90   XYZ
    dof rx
    limits (0.0 90.0)
  end
  begin
     id 23
     name lthumb
     direction 0.707107 -6.3487e-011 0.707107   
     length 0.842145   
     axis -90 45 2.85299e-015   XYZ
    dof rx rz
    limits (-45.0 45.0)
           (-45.0 45.0)
  end
  begin
     id 24 
     name rclavicle
     direction -0.980998 0.169556 0.0943023   
     length 3.29272  
     axis 0 0 0   XYZ 
    dof ry rz
    limits (-10.0 20.0)
           (-20.0 0.0)
  end
  begin
     id 25 
     name rhumerus
     direction -1 -1.83355e-005 2.45537e-005  
     length 5.58976   
     axis 180 30 90   XYZ
    dof rx ry rz
    limits (-90.0 60.0)
           (-90.0 90.0)
           (-90.0 90.0)
  end
  begin
     id 26 
     name rradius
     direction -1 -4.48967e-011 5.97228e-027   
     length 2.4806   
     axis 180 30 90   XYZ
    dof rx
    limits (-10.0 170.0)
  end
  begin
     id 27 
     name rwrist
     direction -1 -4.48963e-011 1.53461e-026   
     length 1.2403   
     axis -1.09697e-014 -90 -90   XYZ
    dof ry
    limits (-180.0 0.0)
  end
  begin
     id 28
     name rhand
     direction -1 -4.48881e-011 3.06923e-026   
     length 0.816009   
     axis -1.95843e-014 -90 -90   XYZ
    dof rx rz
    limits (-90.0 90.0)
           (-45.0 45.0)
  end
  begin
     id 29
     name rfingers
     direction -1 -4.49018e-011 6.13845e-026   
     length 0.657887   
     axis -3.91686e-014 -90 -90   XYZ
    dof rx
    limits (0.0 90.0)
  end
  begin
     id 30
     name rthumb
     direction -0.707107 -6.34872e-011 0.707107   
     length 0.944599   
     axis -90 -45 -2.85299e-015   XYZ
    dof rx rz
    limits (-45.0 45.0)
           (-45.0 45.0)
  end
:hierarchy
  begin
    root lhipjoint rhipjoint lowerback
    lhipjoint lfemur
    lfemur ltibia
    ltibia lfoot
    lfoot ltoes
    rhipjoint rfemur
    rfemur rtibia
    rtibia rfoot
    rfoot rtoes
    lowerback upperback
    upperback thorax
    thorax lowerneck lclavicle rclavicle
    lowerneck upperneck
    upperneck head
    lclavicle lhumerus
    lhumerus lradius
    lradius lwrist
    lwrist lhand lthumb
    lhand lfingers
    rclavicle rhumerus
    rhumerus rradius
    rradius rwrist
    rwrist rhand rthumb
    rhand rfingers
  end

#!OML:ASF F:\VICON\USERDATA\INSTALL\rory3\rory3.ASF
:FULLY-SPECIFIED
:DEGREES
38
root 1.47005 16.663 27.7742 33.1996 9.52613 0.859217
lowerback -15.9624 -5.31528 5.33584
upperback -12.8451 -7.54678 5.13285
thorax -4.88321 -3.99157 1.63477
lowerneck -3.84646 -16.171 -14.4025
upperneck 13.1283 -22.5682 11.3924
head 7.58944 -10.9598 3.60748
rclavicle 2.8128e-014 -2.62396e-014
rhumerus -9.7742 -3.53371 -19.7243
rradius 29.0453
rwrist -5.87862
rhand 10.9766 6.15558
rfingers 7.12502
rthumb 36.052 -20.1481
lclavicle 2.8128e-014 -2.62396e-014
lhumerus 32.9823 -6.1774 13.2123
lradius 55.8121
lwrist 2.59465
lhand 19.2495 13.3338
lfingers 7.12502
lthumb 43.8353 37.2779
rfemur -57.5197 5.78011 26.3305
rtibia 39.9294
rfoot -57.6394 -31.7523
rtoes 47.5328
lfemur -12.1084 -4.29013 -25.3384
ltibia 29.0775
lfoot -3.1352 39.9153
ltoes 40.4135
39
root 1.46925 16.664 27.7725 33.3156 9.45151 0.980073
lowerback -16.1443 -5.31929 5.15136
upperback -12.8213 -7.54647 5.11236
thorax -4.73726 -3.97824 1.68917
lowerneck -3.81341 -16.1609 -14.517
upperneck 13.1006 -22.5823 11.5941
head 7.61533 -10.9605 3.68281
rclavicle -2.7159e-014 1.59028e-014
rhumerus -9.85125 -3.50833 -19.7376
rradius 29.1879
rwrist -5.87262
rhand 11.047 6.1066
rfingers 7.12502
rthumb 36.1187 -20.1807
lclavicle -2.7159e-014 1.59028e-014
lhumerus 33.0893 -6.24438 13.2118
lradius 55.7551
lwrist 2.60044
lhand 19.2557 13.384
lfingers 7.12502
lthumb 43.841 37.3259
rfemur -57.6705 5.86198 26.105
rtibia 39.9525
rfoot -57.7453 -31.7373
rtoes 47.6178
lfemur -12.2261 -4.27393 -25.4813
ltibia 29.0691
lfoot -1.28058 40.1781
ltoes 38.8362
40
root 1.46868 16.6664 27.7727 33.2964 9.45892 1.01432
lowerback -16.2675 -5.308 5.05884
upperback -12.7034 -7.53641 5.0871
thorax -4.5311 -3.96425 1.688
lowerneck -3.92848 -16.1845 -14.4444
upperneck 13.045 -22.6194 11.7052
head 7.62707 -10.9634 3.69322
rclavicle -2.11706e-014 -2.54444e-014
rhumerus -9.94819 -3.52097 -19.7171
rradius 29.1656
rwrist -5.93045
rhand 11.0803 6.28237
rfingers 7.12502
rthumb 36.1502 -19.9971
lclavicle -2.11706e-014 -2.54444e-014
lhumerus 33.3124 -6.20228 13.1311
lradius 55.761
lwrist 2.68187
lhand 19.4398 13.4672
lfingers 7.12502
lthumb 44.0129 37.3453
rfemur -57.6918 6.02513 25.9356
rtibia 39.9712
rfoot -57.667 -32.2578
rtoes 47.601
lfemur -12.1862 -4.27071 -25.5134
ltibia 29.0645
lfoot -2.13736 40.4407
ltoes 39.5839
41
root 1.4678 16.669 27.7699 33.1897 9.46597 0.969774
lowerback -16.1875 -5.306 5.09255
upperback -12.6509 -7.5354 5.07575
thorax -4.52052 -3.96557 1.66167
lowerneck -3.93274 -16.1883 -14.3018
upperneck 12.9586 -22.6167 11.6597
head 7.57666 -10.9606 3.66529
rclavicle 5.10628e-014 3.57812e-014
rhumerus -10.0803 -3.18016 -19.7535
rradius 29.2988
rwrist -6.17218
rhand 10.9208 6.15549
rfingers 7.12502
rthumb 35.9992 -20.1612
lclavicle 5.10628e-014 3.57812e-014
lhumerus 33.3186 -6.23665 12.9982
lradius 55.8653
lwrist 2.70787
lhand 19.5125 13.5776
lfingers 7.12502
lthumb 44.0806 37.4303
rfemur -57.6076 6.5328 25.6325
rtibia 39.9813
rfoot -58.3283 -32.3166
rtoes 47.9565
lfemur -12.0797 -4.36471 -25.4866
ltibia 29.0606
lfoot -5.49746 40.2455
ltoes 42.0241
42
root 1.46553 16.6713 27.767 33.1735 9.40866 0.994506
lowerback -16.2081 -5.30438 4.97642
upperback -12.5946 -7.52508 5.06842
thorax -4.43102 -3.95149 1.70902
lowerneck -4.08778 -16.2079 -14.2234
upperneck 13.0315 -22.6184 11.5442
head 7.60329 -10.9566 3.60576
rclavicle -5.97845e-014 1.03368e-014
rhumerus -10.1252 -3.20943 -19.7539
rradius 29.3105
rwrist -6.1432
rhand 11.0817 6.19444
rfingers 7.12502
rthumb 36.1516 -20.0847
lclavicle -5.97845e-014 1.03368e-014
lhumerus 33.4344 -6.17969 12.9967
lradius 55.9019
lwrist 2.70953
lhand 19.7561 13.7856
lfingers 7.12502
lthumb 44.3078 37.5527
rfemur -57.5887 6.50767 25.6739
rtibia 39.9717
rfoot -58.2126 -32.5296
rtoes 47.8201
lfemur -12.1246 -4.22709 -25.5356
ltibia 29.0932
lfoot -6.24592 40.0277
ltoes 42.56
43
root 1.46997 16.6761 27.7664 33.1264 9.55895 0.997683
lowerback -16.3024 -5.32415 5.06776
upperback -12.5009 -7.57297 5.05465
thorax -4.29326 -3.97929 1.62162
lowerneck -4.22295 -16.1984 -14.1981
upperneck 13.0853 -22.5977 11.5515
head 7.63914 -10.9379 3.59524
rclavicle 5.06155e-014 1.59028e-015
rhumerus -10.0785 -3.61654 -19.7769
rradius 29.1149
rwrist -5.83101
rhand 11.2947 6.54407
rfingers 7.12502
rthumb 36.3533 -19.6849
lclavicle 5.06155e-014 1.59028e-015
lhumerus 33.6052 -6.09217 12.9589
lradius 55.8401
lwrist 2.70925
lhand 19.9911 13.8209
lfingers 7.12502
lthumb 44.5268 37.5044
rfemur -57.4913 5.81929 26.162
rtibia 39.9583
rfoot -57.3006 -32.6498
rtoes 47.4812
lfemur -12.1111 -4.12522 -25.4652
ltibia 29.1438
lfoot -5.99892 40.284
ltoes 42.819
44
root 1.47835 16.6815 27.7641 32.9907 9.86471 0.849058
lowerback -16.1449 -5.33253 5.41533
upperback -12.5457 -7.60763 5.08655
thorax -4.47255 -4.0197 1.48817
lowerneck -3.84259 -16.1281 -14.2793
upperneck 12.8609 -22.5422 11.7123
head 7.52354 -10.9272 3.70111
rclavicle -3.47873e-014 4.77083e-015
rhumerus -10.1628 -3.80747 -19.7379
rradius 29.0162
rwrist -5.51244
rhand 11.581 6.82898
rfingers 7.12502
rthumb 36.6243 -19.3317
lclavicle -3.47873e-014 4.77083e-015
lhumerus 33.5521 -6.53638 12.479
lradius 55.9401
lwrist 3.19508
lhand 19.7204 13.8541
lfingers 7.12502
lthumb 44.2745 37.6339
rfemur -57.3334 5.17253 26.7453
rtibia 39.9561
rfoot -56.736 -32.5566
rtoes 46.9978
lfemur -12.031 -4.13016 -25.1981
ltibia 29.1774
lfoot -4.52349 40.4252
ltoes 41.3777
45
root 1.4808 16.6846 27.765 32.8769 9.96703 0.709846
lowerback -16.1267 -5.3257 5.60272
upperback -12.4913 -7.62106 5.1092
thorax -4.44638 -4.03631 1.40774
lowerneck -3.45059 -15.9978 -14.3695
upperneck 12.5134 -22.4151 12.0256
head 7.37653 -10.8768 3.86957
rclavicle -1.36863e-013 3.02153e-014
rhumerus -10.1953 -3.80665 -19.7495
rradius 28.964
rwrist -5.36976
rhand 11.5229 7.22143
rfingers 7.12502
rthumb 36.5693 -18.9532
lclavicle -1.36863e-013 3.02153e-014
lhumerus 33.272 -7.33016 11.1055
lradius 56.325
lwrist 4.473
lhand 18.8696 13.9341
lfingers 7.12502
lthumb 43.4806 38.008
rfemur -57.1905 5.02638 27.0538
rtibia 39.9484
rfoot -56.5432 -32.696
rtoes 46.5492
lfemur -11.9892 -4.15468 -25.0379
ltibia 29.2103
lfoot -3.82019 41.1508
ltoes 40.9985
46
root 1.47856 16.685 27.7667 32.8441 9.92618 0.834712
lowerback -16.1649 -5.37415 5.40547
upperback -12.4484 -7.66867 5.09125
thorax -4.35255 -4.04685 1.47975
lowerneck -3.40869 -15.8738 -14.4018
upperneck 12.5469 -22.2722 12.1533
head 7.38054 -10.8043 3.93771
rclavicle 3.74709e-014 -1.51076e-014
rhumerus -10.2477 -3.70113 -19.761
rradius 28.9628
rwrist -5.34382
rhand 11.3156 7.22919
rfingers 7.12502
rthumb 36.3731 -18.9948
lclavicle 3.74709e-014 -1.51076e-014
lhumerus 33.2762 -7.4961 10.7998
lradius 56.4083
lwrist 4.69902
lhand 18.704 14.0192
lfingers 7.12502
lthumb 43.3259 38.149
rfemur -57.1144 4.97133 26.9936
rtibia 39.9475
rfoot -56.3369 -32.8056
rtoes 46.7926
lfemur -11.9719 -4.03068 -25.1751
ltibia 29.2501
lfoot -7.80828 40.2435
ltoes 44.0191
